<?xml version="1.0" encoding="utf-8"?>
<!-- Generator: Adobe Illustrator 23.1.1, SVG Export Plug-In . SVG Version: 6.00 Build 0)  -->
<svg version="1.1" id="Layer_1" xmlns="http://www.w3.org/2000/svg" xmlns:xlink="http://www.w3.org/1999/xlink" x="0px" y="0px"
	 viewBox="0 0 234.9 39.6" style="enable-background:new 0 0 234.9 39.6;" xml:space="preserve">
<style type="text/css">
	.st0{fill:#00B6ED;}
	.st1{fill:#FFFFFF;}
</style>
<title>tw_horizontal_blue_white_cmyk</title>
<polygon class="st0" points="3.9,0 9.1,8.7 0,17.3 15.6,17.3 17.1,13.8 8.5,13.8 13.7,8.6 10.7,3.5 24.9,3.5 12.4,33.1 16.7,33.1
	30.7,0 "/>
<rect x="193.8" y="20.3" class="st1" width="3.6" height="18.9"/>
<rect x="193.7" y="13.9" class="st1" width="3.9" height="3.8"/>
<polygon class="st1" points="187.7,13.9 183.3,33.5 183.1,33.5 178.5,20.3 175.3,20.3 170.1,33.5 169.9,33.5 166.4,13.9 162.5,13.9
	167.4,39.2 170.9,39.2 176.6,25.2 176.8,25.2 181.7,39.2 185.3,39.2 191.4,13.9 "/>
<path class="st1" d="M138,36.4c-3.5,0-5.8-2.7-5.8-6.7c0-3.7,2.1-6.8,5.4-6.8c3.8,0,4.9,3.2,5,5.2h-6.7l-1.2,2.9h11.5
	c0-0.8,0-1,0-1.3c0-5.4-2.8-9.8-8.7-9.8c-5.1,0-9.1,4.2-9.1,9.9c0,5.9,3.8,9.8,9.2,9.8c3,0.1,5.8-1.1,7.8-3.2l-2.2-2.1
	C141.9,35.6,140,36.4,138,36.4"/>
<path class="st1" d="M123.9,19.9c0-2.3,1.1-3.7,3.3-3.7c1.1,0,2.1,0.2,3.1,0.6l1.1-2.6c-1.4-0.6-2.9-1-4.4-1c-3.6,0-6.8,1.8-6.8,6.7
	v0.6h-2.4v3h2.4v15.7h3.6V23.5h3.6l1.2-3h-4.9V19.9z"/>
<path class="st1" d="M91.7,19.9c-2.2-0.2-4.4,0.9-5.6,2.8h-0.2v-2.4h-3.5v18.9H86V29c0-3.7,1.9-6,4.9-6c2.8,0,4.5,1.5,4.5,5v11.2H99
	V27.3C99,22.5,96.2,19.9,91.7,19.9"/>
<path class="st1" d="M74.8,31.9c0,2.8-2.3,4.6-5.6,4.6c-1.9,0-3.6-0.9-3.6-3.1c0-2.1,1.7-3.5,4.4-3.5c2.4,0,3.9,0.4,4.8,1.1V31.9z
	 M69.8,19.9c-1.9,0-3.8,0.3-5.6,0.9l0.6,2.9c1.5-0.5,3-0.7,4.5-0.8c3,0,5.5,1.4,5.5,4.5V28c-1.5-0.6-3.1-0.9-4.7-0.9
	c-4.9,0-8.1,2.4-8.1,6.4c0,4.2,3.1,6,6.6,6c2.3,0.2,4.5-0.8,6-2.6h0.2v2.2h3.5V27.4C78.3,22.2,75,19.9,69.8,19.9"/>
<polygon class="st1" points="30.7,13.9 30.7,17.3 38.7,17.3 38.7,39.2 42.5,39.2 42.5,17.3 50.5,17.3 50.5,13.9 "/>
<path class="st1" d="M62.2,20.7c-1-0.4-2-0.6-3.1-0.5c-1.9-0.1-3.8,0.7-5,2.2h-0.2v-2.1h-3.5v18.9H54V28.9c0-4,1.9-5.6,4.8-5.6
	c0.8,0,1.7,0.1,2.5,0.3L62.2,20.7z"/>
<path class="st1" d="M161.6,20.7c-1-0.4-2-0.6-3.1-0.6c-2-0.1-3.9,0.7-5.2,2.2h-0.2v-2.1h-3.5v18.9h3.6V28.9c0-4,2.2-5.6,5-5.6
	c0.8,0,1.7,0.1,2.5,0.3L161.6,20.7z"/>
<path class="st1" d="M226.6,36.4c-3.5,0-5.8-2.7-5.8-6.7c0-3.7,2.1-6.8,5.4-6.8c3.8,0,4.9,3.2,5,5.2h-6.6l-1.2,2.9h11.5
	c0-0.8,0-1,0-1.3c0-5.4-2.8-9.8-8.7-9.8c-5.1,0-9.1,4.2-9.1,9.9c0,5.9,3.8,9.8,9.2,9.8c3,0.1,5.8-1.1,7.8-3.2l-2.2-2.1
	C230.5,35.6,228.6,36.4,226.6,36.4"/>
<path class="st1" d="M109.9,28.3c-2.8-0.4-4.4-0.9-4.4-2.7c0-1.6,1.6-2.7,3.6-2.7c1.8,0,3.5,0.6,5,1.6l1.7-2.6
	c-1.9-1.4-4.3-2.1-6.6-2c-4.2,0-7.2,2.5-7.2,5.8c0,3.8,2.4,5,6.5,5.6c2.3,0.4,4.3,0.6,4.3,2.6c0,1.6-1.6,2.6-3.8,2.6
	c-2.1,0-4.2-0.7-5.8-2l-1.6,2.8c1.4,1.2,4.2,2.2,7.3,2.2c4.3,0,7.5-2.5,7.5-5.9C116.5,29.7,113.2,28.7,109.9,28.3"/>
<path class="st1" d="M208.7,28.3c-2.8-0.4-4.4-0.9-4.4-2.7c0-1.6,1.6-2.7,3.6-2.7c1.8,0,3.5,0.6,5,1.6l1.7-2.6
	c-1.9-1.4-4.3-2.1-6.6-2c-4.2,0-7.2,2.5-7.2,5.8c0,3.8,2.4,5,6.5,5.6c2.3,0.4,4.3,0.6,4.3,2.6c0,1.6-1.6,2.6-3.8,2.6
	c-2.1,0-4.2-0.7-5.8-2l-1.6,2.8c1.4,1.2,4.2,2.2,7.3,2.2c4.3,0,7.5-2.5,7.5-5.9C215.2,29.7,212,28.7,208.7,28.3"/>
</svg>
