<svg width="510" height="140" viewBox="0 0 510 140" fill="none" xmlns="http://www.w3.org/2000/svg">
<path d="M251.173 65.9566H247.494V85.5181H251.173V65.9566Z" fill="white"/>
<path d="M251.338 59.3431H247.329V63.3112H251.338V59.3431Z" fill="white"/>
<path d="M241.198 59.3431L236.622 79.6796H236.457L231.717 65.9566H228.429L223.019 79.6796H222.854L219.227 59.3431H215.269L220.226 85.5181H223.905L229.769 71.0304H229.934L235.004 85.5181H238.683L244.98 59.3431H241.198Z" fill="white"/>
<path d="M190.062 82.6557C186.497 82.6557 184.044 79.845 184.044 75.7632C184.044 71.9604 186.167 68.7053 189.619 68.7053C193.577 68.7053 194.638 72.0121 194.772 74.0478H187.929L186.651 77.0239H198.513C198.564 76.2489 198.564 75.9905 198.564 75.6495C198.564 70.028 195.72 65.5639 189.588 65.5639C184.291 65.5639 180.221 69.8627 180.221 75.7632C180.221 81.829 184.127 85.8488 189.691 85.8488C192.747 85.9804 195.704 84.7511 197.771 82.4904L195.545 80.341C194.118 81.8308 192.143 82.6677 190.083 82.6557" fill="white"/>
<path d="M175.47 65.5742C175.47 63.1458 176.645 61.7715 178.871 61.7715C179.974 61.8063 181.066 62.012 182.107 62.3811L183.271 59.6841C181.86 59.0127 180.319 58.6599 178.757 58.6507C175.017 58.6507 171.791 60.5211 171.791 65.5432V66.1529H169.338V69.253H171.791V85.5078H175.47V69.2633H179.201L180.478 66.1632H175.46L175.47 65.5742Z" fill="white"/>
<path d="M142.297 65.5742C139.992 65.3987 137.77 66.4753 136.475 68.3953H136.31V65.9152H132.765V85.4768H136.475V74.9365C136.475 71.0821 138.422 68.7363 141.493 68.7363C144.389 68.7363 146.12 70.276 146.12 73.9031V85.5284H149.799V73.2314C149.799 68.2713 146.904 65.5742 142.328 65.5742" fill="white"/>
<path d="M124.85 77.9746C124.85 80.899 122.449 82.7694 119.11 82.7694C117.101 82.7694 115.38 81.829 115.38 79.5143C115.38 77.3649 117.162 75.9285 119.893 75.9285C122.346 75.9285 123.964 76.3729 124.85 77.0342V77.9746ZM119.698 65.5742C117.723 65.5394 115.758 65.8579 113.896 66.5146L114.504 69.4907C116.014 68.9913 117.592 68.7298 119.182 68.7156C122.274 68.7156 124.871 70.152 124.871 73.3451V73.8928C123.323 73.293 121.676 72.9948 120.017 73.0144C114.998 73.0144 111.711 75.5462 111.711 79.6796C111.711 83.9784 114.947 85.8798 118.564 85.8798C120.929 86.0419 123.228 85.0583 124.747 83.2344H124.912V85.4974H128.478V73.2831C128.478 67.9406 125.025 65.5639 119.728 65.5639L119.698 65.5742Z" fill="white"/>
<path d="M79.3521 59.3431V62.8668H87.6067V85.5181H91.5124V62.8668H99.7567V59.3431H79.3521Z" fill="white"/>
<path d="M111.855 66.3286C110.842 65.9419 109.764 65.7559 108.681 65.7809C106.695 65.6938 104.785 66.5518 103.528 68.0956H103.364V65.9566H99.7979V85.5181H103.498V74.8332C103.498 70.6997 105.507 69.0463 108.454 69.0463C109.321 69.0408 110.184 69.152 111.02 69.377L111.855 66.3286Z" fill="white"/>
<path d="M214.27 66.4009C213.259 65.999 212.182 65.7921 211.096 65.7912C209.055 65.712 207.089 66.563 205.747 68.106H205.52V65.9566H201.955V85.5181H205.634V74.8332C205.634 70.6997 207.86 69.0463 210.786 69.0463C211.653 69.04 212.516 69.1512 213.352 69.377L214.27 66.4009Z" fill="white"/>
<path d="M281.316 82.6557C277.751 82.6557 275.298 79.845 275.298 75.7632C275.298 71.9604 277.421 68.7053 280.873 68.7053C284.83 68.7053 285.892 72.0121 286.026 74.0478H279.183L277.905 77.0239H289.767C289.818 76.2489 289.818 75.9905 289.818 75.6495C289.818 70.028 286.974 65.5639 280.842 65.5639C275.545 65.5639 271.475 69.8627 271.475 75.7632C271.475 81.829 275.38 85.8488 280.956 85.8488C284.011 85.9804 286.968 84.7511 289.035 82.4904L286.809 80.341C285.382 81.8308 283.407 82.6677 281.347 82.6557" fill="white"/>
<path d="M161.032 74.2235C158.188 73.8411 156.519 73.2831 156.519 71.4127C156.519 69.7077 158.188 68.6536 160.259 68.6536C162.101 68.6901 163.892 69.2647 165.412 70.307L167.195 67.6616C165.195 66.244 162.789 65.5185 160.342 65.5949C156.044 65.5949 152.87 68.1886 152.87 71.5987C152.87 75.5152 155.385 76.7655 159.62 77.4372C162.022 77.8196 164.083 78.0986 164.083 80.1343C164.083 81.8393 162.413 82.7797 160.177 82.7797C157.992 82.8176 155.862 82.0863 154.159 80.713L152.541 83.6374C153.932 84.9084 156.838 85.9005 160.064 85.9005C164.526 85.9005 167.762 83.3067 167.762 79.8346C167.762 75.6495 164.412 74.6678 161.073 74.2648" fill="white"/>
<path d="M262.828 74.2338C259.984 73.8515 258.315 73.2934 258.315 71.4231C258.315 69.718 259.984 68.664 262.056 68.664C263.897 68.7004 265.688 69.275 267.208 70.3174L268.991 67.672C266.991 66.2544 264.586 65.5288 262.138 65.6052C257.851 65.6052 254.667 68.199 254.667 71.6091C254.667 75.5255 257.171 76.7759 261.406 77.4476C263.807 77.8299 265.869 78.1089 265.869 80.1446C265.869 81.8497 264.199 82.79 261.963 82.79C259.777 82.8288 257.647 82.0974 255.944 80.7233L254.327 83.6477C255.718 84.9188 258.614 85.9108 261.849 85.9108C266.312 85.9108 269.537 83.3171 269.537 79.845C269.537 75.6598 266.188 74.6782 262.849 74.2751" fill="white"/>
<path d="M51.7647 45L57.0926 53.9592L47.7662 62.9082H63.8838L65.409 59.3224H56.5052L61.8949 53.9386L58.7414 48.5858H73.4162L60.5346 79.1733H64.9555L79.3521 45H51.7647Z" fill="#00B9FF"/>
</svg>
