<svg fill="none" height="20" viewBox="0 0 119 20" width="119" xmlns="http://www.w3.org/2000/svg"><g clip-rule="evenodd" fill-rule="evenodd"><path d="m1.96911 0 2.61535 4.37948-4.58446 4.37241h7.92608l.745-1.75239h-4.37327l2.64624-2.63164-1.54571-2.61597h7.21146l-6.33073 14.95451h2.16917l7.07876-16.7064z" fill="#00c6ff"/><g fill="#232f49"><path d="m98.1588 10.2446h1.8075v9.5664h-1.8075z"/><path d="m98.0767 7.0106h1.9723v1.94038h-1.9723z"/><path d="m95.0628 7.01112-2.2472 9.94338h-.0815l-2.3287-6.7089h-1.6166l-2.6579 6.7089h-.0821l-1.7807-9.94338h-1.9453l2.4376 12.79988h1.8086l2.8772-7.0869h.0815l2.4943 7.0869h1.8076l3.096-12.79988z"/><path d="m69.9115 18.4103c-1.7533 0-2.9587-1.3749-2.9587-3.3689 0-1.859 1.0408-3.4497 2.74-3.4497 1.9453 0 2.4659 1.6175 2.5206 2.615h-3.3629l-.6295 1.4553h5.8278c.0269-.378.0269-.4851.0269-.6741 0-2.7489-1.3969-4.9313-4.4108-4.9313-2.6027 0-4.6022 2.1011-4.6022 4.9848 0 2.9647 1.917 4.9313 4.6569 4.9313 1.6445 0 3.096-.5922 3.9732-1.6432l-1.096-1.0516c-.7121.7282-1.644 1.1324-2.6853 1.1324z"/><path d="m62.7609 10.0561c0-1.18545.5753-1.85953 1.6713-1.85953.4112 0 1.0686.10814 1.5892.29712l.5749-1.32087c-.7121-.35017-1.5614-.48509-2.2188-.48509-1.8359 0-3.4247.91612-3.4247 3.36837v.2966h-1.2054v1.5094h1.2054v7.9489h1.8081v-7.9489h1.8354l.6305-1.5094h-2.4659z"/><path d="m46.459 10.0561c-1.2054 0-2.3014.4588-2.8494 1.4017h-.0815v-1.2127h-1.7539v9.5659h1.8081v-5.1728c0-1.8868.9592-3.0192 2.4664-3.0192 1.4237 0 2.2735.7544 2.2735 2.5058v5.6862h1.8081v-6.0091c0-2.4249-1.4242-3.7458-3.6713-3.7458z"/><path d="m37.8836 16.1198c0 1.4274-1.178 2.3441-2.822 2.3441-.9861 0-1.8354-.4578-1.8354-1.5902 0-1.05.8767-1.7509 2.2193-1.7509 1.2054 0 2 .2153 2.4381.5386zm-2.548-6.0637c-1.0681 0-2.082.1612-2.8488.4578l.3013 1.4563c.8767-.2698 1.5888-.378 2.3014-.378 1.534 0 2.7941.7009 2.7941 2.2638v.2693c-.4928-.188-1.2601-.431-2.3834-.431-2.4659 0-4.082 1.2395-4.082 3.2607 0 2.1021 1.5887 3.045 3.3694 3.045 1.4799 0 2.4933-.5922 3.0145-1.2936h.0815v1.1056h1.7539v-5.9828c0-2.6134-1.6987-3.7731-4.3019-3.7731z"/><path d="m15.527 7.01112v1.72512h4.0547v11.07476h1.9185v-11.07476h4.0547v-1.72512z"/><path d="m31.5002 10.4336c-.5753-.2426-1.2054-.2694-1.5619-.2694-1.0139 0-1.9995.4043-2.5206 1.1309h-.0821v-1.05h-1.7534v9.5664h1.8086v-5.2279c0-2.0212.9861-2.8297 2.4381-2.8297.4933 0 .822.0541 1.2606.1617z"/><path d="m81.8295 10.4603c-.5753-.242-1.2053-.2966-1.5619-.2966-1.0134 0-2.1094.4043-2.629 1.1324h-.0836v-1.0515h-1.7528v9.5664h1.8085v-5.2274c0-2.0212 1.0955-2.8292 2.5475-2.8292.4933 0 .822.0531 1.2606.1612z"/><path d="m114.779 18.4103c-1.754 0-2.959-1.3749-2.959-3.3689 0-1.859 1.042-3.4497 2.74-3.4497 1.946 0 2.466 1.6175 2.521 2.615h-3.363l-.63 1.4553h5.828c.027-.378.027-.4851.027-.6741 0-2.7489-1.396-4.9313-4.41-4.9313-2.603 0-4.603 2.1011-4.603 4.9848 0 2.9647 1.917 4.9313 4.657 4.9313 1.645 0 3.097-.5922 3.973-1.6432l-1.096-1.0516c-.712.7282-1.643 1.1324-2.685 1.1324z"/><path d="m55.6659 14.288c-1.3973-.189-2.2193-.4588-2.2193-1.3749 0-.8353.822-1.3472 1.8359-1.3472.8215 0 1.8627.3239 2.5196.809l.8772-1.2941c-.8215-.674-2.1367-1.0237-3.37-1.0237-2.1094 0-3.6713 1.2668-3.6713 2.9368 0 1.9141 1.2332 2.5336 3.3158 2.857 1.178.1885 2.1915.3234 2.1915 1.3204 0 .8353-.8225 1.2936-1.9175 1.2936-1.0686 0-2.0279-.2966-2.9597-1.0243l-.7942 1.428c.6848.62 2.1099 1.1051 3.6987 1.1051 2.1919 0 3.7807-1.2663 3.7807-2.9641 0-2.048-1.6435-2.5058-3.2874-2.7216z"/><path d="m105.698 14.291c-1.397-.1889-2.219-.4588-2.219-1.3749 0-.8353.822-1.3471 1.836-1.3471.821 0 1.863.3239 2.52.809l.877-1.2946c-.822-.6736-2.137-1.0233-3.37-1.0233-2.11 0-3.671 1.2663-3.671 2.9369 0 1.9135 1.233 2.5331 3.314 2.8564 1.179.189 2.193.3234 2.193 1.3204 0 .8353-.822 1.2941-1.918 1.2941-1.069 0-2.028-.2966-2.959-1.0248l-.794 1.429c.684.6196 2.108 1.1046 3.698 1.1046 2.192 0 3.78-1.2668 3.78-2.9641 0-2.048-1.643-2.5063-3.287-2.7216z"/></g></g></svg>