<svg xmlns="http://www.w3.org/2000/svg" viewBox="0 0 150 26"><g fill="none" fill-rule="evenodd"><path d="M2.783.457l3.282 5.496-5.753 5.488h9.947l.935-2.2H5.706l3.32-3.302-1.94-3.283h9.051L8.192 21.423h2.722L19.798.457H2.783" fill="#00C6FF"/><path d="M123.499 13.314h2.268V25.32H123.5V13.314zM123.396 9.255h2.475v2.435h-2.475V9.255zM119.614 9.256l-2.82 12.479h-.103l-2.922-8.42h-2.03l-3.335 8.42h-.103l-2.234-12.479h-2.442l3.06 16.064h2.269l3.61-8.894h.103l3.13 8.894h2.269l3.885-16.064h-2.337M88.05 23.562c-2.201 0-3.714-1.726-3.714-4.228 0-2.333 1.306-4.33 3.439-4.33 2.441 0 3.094 2.03 3.163 3.282h-4.22l-.79 1.827h7.314c.033-.475.033-.61.033-.846 0-3.45-1.753-6.189-5.535-6.189-3.266 0-5.776 2.637-5.776 6.256 0 3.72 2.406 6.188 5.844 6.188 2.064 0 3.886-.743 4.987-2.062l-1.376-1.32a4.635 4.635 0 01-3.37 1.422M79.075 13.077c0-1.487.722-2.333 2.098-2.333.516 0 1.341.135 1.994.373l.722-1.658c-.894-.44-1.96-.609-2.785-.609-2.304 0-4.298 1.15-4.298 4.227v.373h-1.512v1.894h1.512v9.976h2.27v-9.976h2.303l.791-1.894h-3.095v-.373M58.617 13.077c-1.513 0-2.888.576-3.576 1.76h-.102v-1.522h-2.201V25.32h2.269v-6.492c0-2.368 1.204-3.79 3.095-3.79 1.787 0 2.853.948 2.853 3.146v7.136h2.27v-7.542c0-3.043-1.788-4.7-4.608-4.7M47.855 20.687c0 1.792-1.478 2.942-3.541 2.942-1.238 0-2.304-.575-2.304-1.996 0-1.317 1.1-2.197 2.785-2.197 1.513 0 2.51.27 3.06.676v.575zm-3.198-7.61c-1.34 0-2.613.203-3.575.575l.378 1.828c1.1-.34 1.994-.475 2.889-.475 1.925 0 3.506.88 3.506 2.841v.338c-.618-.236-1.581-.54-2.991-.54-3.095 0-5.123 1.555-5.123 4.091 0 2.638 1.994 3.822 4.229 3.822 1.857 0 3.129-.743 3.783-1.624h.102v1.388h2.201v-7.508c0-3.28-2.132-4.736-5.399-4.736zM19.798 9.256v2.165h5.089V25.32h2.407V11.42h5.089V9.256H19.798M39.844 13.551c-.722-.304-1.513-.338-1.96-.338-1.273 0-2.51.507-3.163 1.42h-.103v-1.318h-2.2V25.32h2.269v-6.56c0-2.537 1.237-3.552 3.06-3.552.619 0 1.031.068 1.582.203l.515-1.86M103.006 13.585c-.722-.304-1.513-.373-1.96-.373-1.272 0-2.647.508-3.3 1.422h-.104v-1.32h-2.2V25.32h2.27v-6.56c0-2.537 1.374-3.551 3.197-3.551.619 0 1.031.066 1.582.202l.515-1.826M144.357 23.562c-2.2 0-3.713-1.726-3.713-4.228 0-2.333 1.307-4.33 3.438-4.33 2.442 0 3.095 2.03 3.164 3.282h-4.221l-.79 1.827h7.314c.034-.475.034-.61.034-.846 0-3.45-1.753-6.189-5.535-6.189-3.267 0-5.777 2.637-5.777 6.256 0 3.72 2.407 6.188 5.845 6.188 2.064 0 3.886-.743 4.987-2.062l-1.377-1.32a4.634 4.634 0 01-3.369 1.422M70.171 18.388c-1.753-.237-2.785-.575-2.785-1.725 0-1.048 1.032-1.69 2.304-1.69 1.031 0 2.338.406 3.162 1.014l1.101-1.624c-1.03-.846-2.681-1.284-4.23-1.284-2.646 0-4.606 1.59-4.606 3.685 0 2.402 1.547 3.18 4.16 3.586 1.48.236 2.751.406 2.751 1.657 0 1.048-1.032 1.623-2.406 1.623-1.341 0-2.545-.372-3.715-1.285l-.996 1.792c.859.778 2.647 1.387 4.641 1.387 2.751 0 4.745-1.59 4.745-3.72 0-2.57-2.062-3.145-4.126-3.416M132.96 18.392c-1.753-.237-2.785-.576-2.785-1.725 0-1.049 1.032-1.691 2.305-1.691 1.03 0 2.338.406 3.162 1.015l1.1-1.624c-1.03-.846-2.68-1.285-4.228-1.285-2.648 0-4.607 1.59-4.607 3.686 0 2.402 1.547 3.18 4.16 3.585 1.478.237 2.75.406 2.75 1.657 0 1.048-1.031 1.624-2.406 1.624-1.342 0-2.545-.372-3.714-1.286l-.996 1.793c.859.778 2.646 1.387 4.64 1.387 2.751 0 4.745-1.59 4.745-3.72 0-2.57-2.062-3.146-4.126-3.416" fill="#232F49"/></g></svg>