<svg id="Layer_1" xmlns="http://www.w3.org/2000/svg" viewBox="0 0 1280 697">
  <style>
    .st0{fill:#fff}.st1{fill:#2e4369}.st2{fill:none;stroke:#ed1c24;stroke-miterlimit:10}.st3{fill:#ed1c24}.st4{fill:#f7931e}
  </style>
  <path class="st0" d="M104.5 117.5h1072v158h-1072z"/>
  <path class="st1" d="M1176 118v157H105V118h1071m1-1H104v159h1073V117z"/>
  <path class="st0" d="M146.5 166.5h589v67h-589z"/>
  <path class="st1" d="M735 167v66H147v-66h588m1-1H146v68h590v-68zM100.9 48.6h5.6c5.4 0 8.9 3.5 8.9 8.5s-3.3 8.5-8.8 8.5h-5.7v-17zm5.5 14.1c3.3 0 5.5-2.4 5.5-5.5 0-3.2-2.2-5.5-5.3-5.5h-2.4v11h2.2zM129 60.8h-8.2c.4 1.4 1.5 2.3 3 2.3 1.2 0 2.2-.5 2.8-1.3l2 1.9c-1 1.3-2.7 2.2-5.1 2.2-3.4 0-6-2.4-6-6.1 0-3.6 2.5-6 5.8-6 3.4 0 5.7 2.5 5.7 5.9v1.1zm-8.3-2.2h5.2c-.3-1.2-1.2-2-2.5-2-1.3-.1-2.3.6-2.7 2zM132 56.5h-1.2V54h1.2v-2c0-2.7 1.4-4.2 3.7-4.2 1.4 0 2.5.5 3 .9l-.6 2.4c-.7-.3-1.3-.5-1.8-.5-.7 0-1.2.4-1.2 1.6V54h2.6v2.6h-2.6v9.1H132v-9.2zM149.4 58.7v7h-2.9l-.1-1c-.8.6-1.9 1.2-3.3 1.2-2.6 0-3.9-1.6-3.9-3.7 0-2.4 1.5-3.8 4.7-3.8h2.4c-.1-1.3-.8-1.9-2-1.9-1 0-2.3.3-3.3.8l-1.1-2.4c.8-.4 2.5-1.1 4.7-1.1 3 0 4.8 1.4 4.8 4.9zm-3.1 3.1v-1.3h-2.1c-1.2 0-1.9.4-1.9 1.4 0 .8.6 1.3 1.6 1.3 1.5.1 2.4-.9 2.4-1.4zM163.1 54v11.7H160v-1.4c-.9 1.1-2.2 1.6-3.5 1.6-2.5 0-4.3-1.3-4.3-4.8V54h3.1v6.2c0 2.2.6 2.9 2.1 2.9 1.4 0 2.6-1.2 2.6-3.4V54h3.1zM166.3 48h3.1v17.7h-3.1V48zM173 62v-5.4h-1.4V54h1.4v-3.8l3.1-.3V54h3.2v2.6h-3.2v5c0 1 .3 1.5 1 1.5.4 0 1-.1 1.5-.4l.8 2.5c-.8.4-1.5.7-3.1.7-2 0-3.3-1.3-3.3-3.9zM99.8 351.2l2-2.5c1.3 1.5 2.9 2.1 4.2 2.1 1.6 0 2.4-.7 2.4-1.8 0-1.2-.9-1.7-3-2.4-2.6-.9-5.1-2.1-5.1-5.3 0-2.7 2.4-4.8 5.5-4.9 2.1 0 4.1.8 5.7 2.2l-1.9 2.5c-1.4-1.2-2.7-1.7-3.7-1.7-1.2 0-2 .6-2 1.7s.9 1.5 2.9 2.3c3 1.2 5.3 1.9 5.3 5.2 0 3.7-3.2 5.2-6 5.2-2.3.1-4.5-.8-6.3-2.6zM125.4 348.8h-8.2c.4 1.4 1.5 2.3 3 2.3 1.2 0 2.2-.5 2.8-1.3l2 1.9c-1 1.3-2.7 2.2-5.1 2.2-3.4 0-6-2.4-6-6.1 0-3.6 2.5-6 5.8-6 3.4 0 5.7 2.5 5.7 5.9.1.4.1.9 0 1.1zm-8.2-2.2h5.2c-.3-1.2-1.2-2-2.5-2-1.3-.1-2.3.6-2.7 2zM127.4 347.8c0-3.6 2.5-6 6.2-6 1.9 0 3.8.7 5 2.2l-2.1 1.8c-.6-.7-1.5-1.2-2.7-1.2-1.9 0-3.1 1.3-3.1 3.2 0 1.9 1.3 3.3 3.1 3.3 1.2 0 2.2-.6 2.7-1.2l2.1 1.9c-1 1.2-2.8 2.1-5.2 2.1-3.4 0-6-2.5-6-6.1zM140.2 347.8c0-3.5 2.5-6 6.2-6 3.6 0 6.2 2.4 6.2 6s-2.6 6-6.2 6c-3.7.1-6.2-2.5-6.2-6zm9.2 0c0-1.9-1.3-3.2-3-3.2-1.8 0-3 1.4-3 3.2 0 1.8 1.3 3.2 3 3.2 1.7.1 3-1.3 3-3.2zM166.3 346.7v7h-3.1v-6.2c0-2.2-.8-2.9-2.3-2.9-1.6 0-2.7 1.1-2.7 3.2v5.9h-3.1V342h3.1v1.5c1-1.1 2.3-1.7 3.7-1.7 2.7 0 4.4 1.3 4.4 4.9zM181 336v17.7h-3v-1.4c-.8 1-2 1.6-3.6 1.6-3.2 0-5.6-2.4-5.6-6s2.4-6.1 5.5-6.1c1.4 0 2.7.5 3.5 1.5h.1V336h3.1zm-3 11.9c0-1.9-1.3-3.3-3.1-3.3-1.7 0-3 1.3-3 3.3 0 1.9 1.2 3.2 3 3.2 1.7 0 3.1-1.3 3.1-3.2zM193.7 346.7v7h-2.9l-.1-1c-.8.6-1.9 1.2-3.3 1.2-2.6 0-3.9-1.6-3.9-3.7 0-2.4 1.5-3.8 4.7-3.8h2.4c-.1-1.3-.8-1.9-2-1.9-1 0-2.3.3-3.3.8l-1.1-2.4c.8-.4 2.5-1.1 4.7-1.1 2.9 0 4.8 1.4 4.8 4.9zm-3.1 3.1v-1.3h-2.1c-1.2 0-1.9.4-1.9 1.4 0 .8.6 1.3 1.6 1.3 1.5.1 2.4-.9 2.4-1.4zM203.5 341.8v3.4h-.8c-1.9 0-3 1.3-3 3v5.4h-3.1V342h3.1v1.7c.9-1.2 2.2-1.9 3.6-1.9h.2zM216.5 342l-6.3 16.5H207l2.1-5.5-4.7-11h3.3l2.9 7.2 2.7-7.2h3.2zM236 346.7v7h-3.1v-6.2c0-2.2-.8-2.9-2.3-2.9-1.6 0-2.7 1.1-2.7 3.2v5.9h-3.1V342h3.1v1.5c1-1.1 2.3-1.7 3.7-1.7 2.6 0 4.4 1.3 4.4 4.9zM248.5 346.7v7h-2.9l-.1-1c-.8.6-1.9 1.2-3.3 1.2-2.6 0-3.9-1.6-3.9-3.7 0-2.4 1.5-3.8 4.7-3.8h2.4c-.1-1.3-.8-1.9-2-1.9-1 0-2.3.3-3.3.8l-1.1-2.4c.8-.4 2.5-1.1 4.7-1.1 3 0 4.8 1.4 4.8 4.9zm-3.1 3.1v-1.3h-2.1c-1.2 0-1.9.4-1.9 1.4 0 .8.6 1.3 1.6 1.3 1.5.1 2.4-.9 2.4-1.4zM261.9 342l-4.6 11.7h-3l-4.6-11.7h3.3l2.8 7.9 2.7-7.9h3.4zM263.7 338.4c0-1.1.9-1.9 1.9-1.9 1.1 0 2 .9 2 1.9 0 1.1-.9 1.9-2 1.9-1 0-1.9-.9-1.9-1.9zm.3 3.6h3.1v11.7H264V342zM281.9 342v10.4c0 3.6-1.6 6.3-6.1 6.3-1.8 0-3.4-.4-4.8-1.2l.7-2.7c1.2.6 2.3 1.1 3.8 1.1 2.2 0 3.3-1.2 3.3-2.6v-1.2h-.1c-.8.9-2 1.4-3.4 1.4-3.2 0-5.6-2.4-5.6-5.8 0-3.5 2.3-5.9 5.4-5.9 1.3 0 2.6.5 3.5 1.4h.1V342h3.2zm-3 5.6c0-1.8-1.3-3-3-3-1.8 0-3 1.2-3 3s1.3 3 3 3c1.8 0 3-1.3 3-3zM294.5 346.7v7h-2.9l-.1-1c-.8.6-1.9 1.2-3.3 1.2-2.6 0-3.9-1.6-3.9-3.7 0-2.4 1.5-3.8 4.7-3.8h2.4c-.1-1.3-.8-1.9-2-1.9-1 0-2.3.3-3.3.8l-1.1-2.4c.8-.4 2.5-1.1 4.7-1.1 3 0 4.8 1.4 4.8 4.9zm-3.1 3.1v-1.3h-2.1c-1.2 0-1.9.4-1.9 1.4 0 .8.6 1.3 1.6 1.3 1.5.1 2.4-.9 2.4-1.4zM297.7 350v-5.4h-1.4V342h1.4v-3.8l3.1-.3v4.2h3.2v2.6h-3.2v5c0 1 .3 1.5 1 1.5.4 0 1-.1 1.5-.4l.8 2.5c-.8.4-1.5.7-3.1.7-2-.1-3.3-1.4-3.3-4zM306.1 338.4c0-1.1.9-1.9 1.9-1.9 1.1 0 2 .9 2 1.9 0 1.1-.9 1.9-2 1.9-1 0-1.9-.9-1.9-1.9zm.4 3.6h3.1v11.7h-3.1V342zM312.3 347.8c0-3.5 2.5-6 6.2-6 3.6 0 6.2 2.4 6.2 6s-2.6 6-6.2 6c-3.7.1-6.2-2.5-6.2-6zm9.3 0c0-1.9-1.3-3.2-3-3.2-1.8 0-3 1.4-3 3.2 0 1.8 1.3 3.2 3 3.2 1.7.1 3-1.3 3-3.2zM338.5 346.7v7h-3.1v-6.2c0-2.2-.8-2.9-2.3-2.9-1.6 0-2.7 1.1-2.7 3.2v5.9h-3.1V342h3.1v1.5c1-1.1 2.3-1.7 3.7-1.7 2.7 0 4.4 1.3 4.4 4.9z"/>
  <path class="st2" d="M64.5 116.5v159"/>
  <g>
    <path class="st3" d="M38.4 197.4c0 1.5-1.2 2.7-2.8 2.7s-2.9-1.3-2.9-3.2c0-3 2-5 4.2-5.4l.3.9c-1.5.3-2.9 1.4-3.3 3.2.5-.5 1.2-.7 2-.7 1.4-.1 2.5.9 2.5 2.5zm-1 0c0-1-.7-1.7-1.8-1.7-.9 0-1.6.5-2 1.1v.1c0 1.3.8 2.2 1.9 2.2 1.2 0 1.9-.8 1.9-1.7zM43.2 198.6h-3.8v-.7l4-6.1h.9v5.9h1.2v.9h-1.2v1.5h-1v-1.5h-.1zm0-.9v-4.1l-2.6 4.1h2.6zM52.6 197.1c0 1.8-1.2 3-2.9 3-.8 0-1.5-.3-2-.9v3.2h-1v-8.2h1v.9c.5-.6 1.2-.9 2-.9 1.7-.1 2.9 1.2 2.9 2.9zm-1 0c0-1.3-.9-2.1-2-2.1s-1.9.9-1.9 2.1c0 1.2.9 2.1 1.9 2.1 1.2 0 2-.9 2-2.1zM56.2 197.9l-1.6 2.1h-1.1l2.1-3-2.1-2.9h1.1l1.5 2.1 1.5-2.1h1.1l-2.1 2.9 2.1 3h-1.1l-1.4-2.1z"/>
  </g>
  <g>
    <path class="st3" d="M30.4 520l-1.6 1.2-.5-.8 2.3-1.7h.8v8.2h-1V520zM38.2 526.1v.9H33v-.7l2.8-2.9c.7-.7 1.3-1.4 1.3-2.2 0-.9-.6-1.6-1.5-1.6-.8 0-1.4.4-1.8 1.1l-.7-.5c.5-.9 1.3-1.6 2.6-1.6s2.5.9 2.5 2.4c0 .9-.4 1.7-1.4 2.8l-2.1 2.2 3.5.1zM45.1 524.7c0 1.4-1.3 2.3-2.9 2.3-1.7 0-2.9-1-2.9-2.3 0-1.1.7-1.9 1.6-2.2-.6-.2-1.2-.9-1.2-1.7 0-1.3 1.1-2.1 2.5-2.1 1.5 0 2.5.8 2.5 2.1 0 .9-.6 1.6-1.2 1.7.9.3 1.6 1.1 1.6 2.2zm-1-.1c0-.9-.7-1.6-1.9-1.6-1.1 0-1.9.6-1.9 1.6 0 .9.8 1.5 1.9 1.5 1.1.1 1.9-.7 1.9-1.5zm-3.4-3.7c0 .8.6 1.2 1.5 1.2s1.5-.5 1.5-1.2-.7-1.3-1.5-1.3c-.9 0-1.5.6-1.5 1.3zM52.4 524.1c0 1.8-1.2 3-2.9 3-.8 0-1.5-.3-2-.9v3.2h-1v-8.2h1v.9c.5-.6 1.2-.9 2-.9 1.7-.1 2.9 1.2 2.9 2.9zm-1 0c0-1.3-.9-2.1-2-2.1s-1.9.9-1.9 2.1c0 1.2.9 2.1 1.9 2.1 1.3 0 2-.9 2-2.1zM56.1 524.9l-1.6 2.1h-1.1l2.1-3-2.1-2.9h1.1l1.5 2.1 1.5-2.1h1.1l-2.1 2.9 2.1 3h-1.1l-1.4-2.1z"/>
  </g>
  <path class="st2" d="M64.5 408v241.5"/>
  <g>
    <path class="st1" d="M107.6 101.1l-6.6-3.9v-1.1l6.6-3.9v1.3l-5.3 3.2 5.3 3.1v1.3zM118.7 103h-1.4v-5.9c0-.8-.1-1.4-.4-1.8s-.7-.5-1.2-.5c-.8 0-1.7.5-2.7 1.6v6.6h-1.4V90.6h1.4v4.6c1-1 2-1.6 3.1-1.6 1.7 0 2.6 1 2.6 3.1v6.3zM129.8 98.5h-6.3c0 1 .3 1.9.9 2.6s1.3 1 2.2 1c.8 0 1.7-.1 2.6-.4l.2 1.1c-.8.4-1.8.5-2.8.5-1.4 0-2.5-.4-3.3-1.3s-1.2-2.1-1.2-3.5c0-1.5.4-2.6 1.1-3.5s1.7-1.3 2.9-1.3c1.1 0 1.9.4 2.6 1.2.7.8 1.1 1.9 1.1 3.2v.4zm-1.5-1.1c0-.7-.2-1.3-.7-1.8s-.9-.7-1.5-.7c-.7 0-1.3.2-1.8.7s-.7 1.1-.8 1.8h4.8zM140.6 103h-1.4c-.1-.4-.2-.9-.2-1.5-.8 1.1-1.8 1.7-3.2 1.7-.7 0-1.3-.2-1.8-.7s-.8-1.1-.8-1.9c0-.5.1-.8.3-1.2s.4-.6.8-.9.8-.4 1.3-.6 1.1-.2 1.8-.3l1.5-.1v-.4c0-1.6-.7-2.4-2.2-2.4-.3 0-.8.1-1.3.2s-1 .3-1.4.5l-.4-1c1.2-.6 2.4-1 3.5-1 2.1 0 3.1 1.1 3.1 3.3v3.9c.2 1.1.2 1.8.4 2.4zm-1.6-2.7v-1.7c-1.2.1-2.1.2-2.5.3s-.9.3-1.2.5-.5.6-.5 1.1c0 .4.1.7.4 1s.7.4 1.1.4c.5 0 1-.1 1.5-.4s.8-.7 1.2-1.2zM151.1 103h-1.4v-1.3c-.3.5-.7.8-1.2 1.1s-1.1.4-1.7.4c-1 0-1.9-.5-2.5-1.4s-.9-2.1-.9-3.6c0-1.3.3-2.5 1-3.3s1.5-1.3 2.5-1.3c1.2 0 2.1.5 2.8 1.4v-4.4h1.4V103zm-1.4-2.8v-3.8c-.7-1.1-1.4-1.6-2.4-1.6-.8 0-1.4.3-1.8 1s-.7 1.5-.7 2.5c0 1.1.2 1.9.6 2.6s1 1 1.7 1c.3 0 .7-.1 1-.3s.7-.5 1-.8.6-.5.6-.6zM162.2 98.5h-6.3c0 1 .3 1.9.9 2.6s1.3 1 2.2 1c.8 0 1.7-.1 2.6-.4l.2 1.1c-.8.4-1.8.5-2.8.5-1.4 0-2.5-.4-3.3-1.3s-1.2-2.1-1.2-3.5c0-1.5.4-2.6 1.1-3.5s1.7-1.3 2.9-1.3c1.1 0 1.9.4 2.6 1.2s1.1 1.9 1.1 3.2v.4zm-1.5-1.1c0-.7-.2-1.3-.7-1.8s-.9-.7-1.5-.7c-.7 0-1.3.2-1.8.7s-.7 1.1-.8 1.8h4.8zM172.9 94.1l-.6 1.3c-.6-.3-1.1-.4-1.6-.4-.4 0-.8.1-1.2.3s-.7.6-1.1 1-.4.7-.4.8v5.9h-1.4v-9.2h1.4v1.9c.7-1.4 1.7-2.1 2.8-2.1.8 0 1.4.2 2.1.5zM183.5 97.2l-6.6 3.9v-1.3l5.3-3.1-5.3-3.2v-1.3l6.6 3.9v1.1z"/>
  </g>
  <g>
    <path class="st1" d="M154.6 152.1l-6.6-3.9v-1.1l6.6-3.9v1.3l-5.3 3.2 5.3 3.1v1.3zM165.7 154h-1.4v-1.4c-1 1-2 1.6-3.1 1.6-1.7 0-2.6-1-2.6-3.1v-6.3h1.4v5.9c0 .8.1 1.4.4 1.7s.7.6 1.2.6c.8 0 1.7-.5 2.7-1.6v-6.6h1.4v9.2zM175.9 154h-3.7v-11.2h-2.4v-1.2h3.8v11.2h2.4v1.2h-.1zM187.3 148.2l-6.6 3.9v-1.3l5.3-3.1-5.3-3.2v-1.3l6.6 3.9v1.1zM205.4 152c.3 0 .6.1.8.3s.3.5.3.8-.1.6-.3.8-.5.3-.8.3-.6-.1-.8-.3-.3-.5-.3-.8.1-.6.3-.8.4-.3.8-.3zM219.8 154h-1.4v-5.9c0-.8-.1-1.4-.4-1.8s-.7-.5-1.2-.5c-.8 0-1.7.5-2.7 1.6v6.6h-1.4v-9.2h1.4v1.3c1-1 2-1.6 3.1-1.6 1.7 0 2.6 1 2.6 3.1v6.4zM230.8 154h-1.4c-.1-.4-.2-.9-.2-1.5-.8 1.1-1.8 1.7-3.2 1.7-.7 0-1.3-.2-1.8-.7s-.8-1.1-.8-1.9c0-.5.1-.8.3-1.2s.4-.6.8-.9.8-.4 1.3-.6 1.1-.2 1.8-.3l1.5-.1v-.4c0-1.6-.7-2.4-2.2-2.4-.3 0-.8.1-1.3.2s-1 .3-1.4.5l-.4-1c1.2-.6 2.4-1 3.5-1 2.1 0 3.1 1.1 3.1 3.3v3.9c.2 1.1.2 1.8.4 2.4zm-1.6-2.7v-1.7c-1.2.1-2.1.2-2.5.3s-.9.3-1.2.5-.5.6-.5 1.1c0 .4.1.7.4 1s.7.4 1.1.4c.5 0 1-.1 1.5-.4s.8-.7 1.2-1.2zM241.8 144.8l-3.5 9.2h-1.2l-3.5-9.2h1.5l2.6 7.3 2.6-7.3h1.5zM259.4 152c.3 0 .6.1.8.3s.3.5.3.8-.1.6-.3.8-.5.3-.8.3-.6-.1-.8-.3-.3-.5-.3-.8.1-.6.3-.8.5-.3.8-.3zM273.8 154h-1.4v-5.9c0-.8-.1-1.4-.4-1.8s-.7-.5-1.2-.5c-.8 0-1.7.5-2.7 1.6v6.6h-1.4v-9.2h1.4v1.3c1-1 2-1.6 3.1-1.6 1.7 0 2.6 1 2.6 3.1v6.4zM284.8 154h-1.4c-.1-.4-.2-.9-.2-1.5-.8 1.1-1.8 1.7-3.2 1.7-.7 0-1.3-.2-1.8-.7s-.8-1.1-.8-1.9c0-.5.1-.8.3-1.2s.4-.6.8-.9.8-.4 1.3-.6 1.1-.2 1.8-.3l1.5-.1v-.4c0-1.6-.7-2.4-2.2-2.4-.3 0-.8.1-1.3.2s-1 .3-1.4.5l-.4-1c1.2-.6 2.4-1 3.5-1 2.1 0 3.1 1.1 3.1 3.3v3.9c.2 1.1.2 1.8.4 2.4zm-1.6-2.7v-1.7c-1.2.1-2.1.2-2.5.3s-.9.3-1.2.5-.5.6-.5 1.1c0 .4.1.7.4 1s.7.4 1.1.4c.5 0 1-.1 1.5-.4s.8-.7 1.2-1.2zM295.8 144.8l-3.5 9.2h-1.2l-3.5-9.2h1.5l2.6 7.3 2.6-7.3h1.5zM300.5 146c.3-.4.7-.8 1.2-1s1.1-.4 1.6-.4c1.1 0 1.9.4 2.5 1.3s.9 2 .9 3.4-.3 2.6-.9 3.5-1.5 1.4-2.5 1.4c-.6 0-1.1-.1-1.6-.4s-.9-.7-1.2-1.1v1.3h-1.4v-12.4h1.4v4.4zm0 1.4v3.8c.3.5.6.9 1 1.3s.9.5 1.4.5c.7 0 1.3-.4 1.8-1.1s.7-1.6.7-2.6c0-1.1-.2-1.9-.6-2.6s-1-1-1.7-1c-1.1.1-1.9.6-2.6 1.7zM317.2 154h-1.4c-.1-.4-.2-.9-.2-1.5-.8 1.1-1.8 1.7-3.2 1.7-.7 0-1.3-.2-1.8-.7s-.8-1.1-.8-1.9c0-.5.1-.8.3-1.2s.4-.6.8-.9.8-.4 1.3-.6 1.1-.2 1.8-.3l1.5-.1v-.4c0-1.6-.7-2.4-2.2-2.4-.3 0-.8.1-1.3.2s-1 .3-1.4.5l-.4-1c1.2-.6 2.4-1 3.5-1 2.1 0 3.1 1.1 3.1 3.3v3.9c.2 1.1.2 1.8.4 2.4zm-1.6-2.7v-1.7c-1.2.1-2.1.2-2.5.3s-.9.3-1.2.5-.5.6-.5 1.1c0 .4.1.7.4 1s.7.4 1.1.4c.5 0 1-.1 1.5-.4s.8-.7 1.2-1.2zM327.9 145.1l-.6 1.3c-.6-.3-1.1-.4-1.6-.4-.4 0-.8.1-1.2.3s-.7.6-1.1 1-.5.7-.5.7v5.9h-1.4v-9.2h1.4v1.9c.7-1.4 1.7-2.1 2.8-2.1.9.1 1.6.3 2.2.6zM337.5 149.7h-5.2v-1.3h5.2v1.3zM349.4 154H348v-5.9c0-.8-.1-1.4-.4-1.8s-.7-.5-1.2-.5c-.8 0-1.7.5-2.7 1.6v6.6h-1.4v-9.2h1.4v1.3c1-1 2-1.6 3.1-1.6 1.7 0 2.6 1 2.6 3.1v6.4zM360.4 154H359c-.1-.4-.2-.9-.2-1.5-.8 1.1-1.8 1.7-3.2 1.7-.7 0-1.3-.2-1.8-.7s-.8-1.1-.8-1.9c0-.5.1-.8.3-1.2s.4-.6.8-.9.8-.4 1.3-.6 1.1-.2 1.8-.3l1.5-.1v-.4c0-1.6-.7-2.4-2.2-2.4-.3 0-.8.1-1.3.2s-1 .3-1.4.5l-.4-1c1.2-.6 2.4-1 3.5-1 2.1 0 3.1 1.1 3.1 3.3v3.9c.2 1.1.3 1.8.4 2.4zm-1.6-2.7v-1.7c-1.2.1-2.1.2-2.5.3s-.9.3-1.2.5-.5.6-.5 1.1c0 .4.1.7.4 1s.7.4 1.1.4c.5 0 1-.1 1.5-.4s.8-.7 1.2-1.2zM371.4 144.8l-3.5 9.2h-1.2l-3.5-9.2h1.5l2.6 7.3 2.6-7.3h1.5z"/>
  </g>
  <g>
    <path class="st0" d="M104.5 407.5h1072v158h-1072z"/>
    <path class="st1" d="M1176 408v157H105V408h1071m1-1H104v159h1073V407z"/>
  </g>
  <g>
    <path class="st0" d="M104.5 522.5h1072v127h-1072z"/>
    <path class="st1" d="M1176 523v126H105V523h1071m1-1H104v128h1073V522z"/>
  </g>
  <g>
    <path class="st1" d="M107.6 391.1l-6.6-3.9v-1.1l6.6-3.9v1.3l-5.3 3.2 5.3 3.1v1.3zM118.7 393h-1.4v-5.9c0-.8-.1-1.4-.4-1.8s-.7-.5-1.2-.5c-.8 0-1.7.5-2.7 1.6v6.6h-1.4v-12.4h1.4v4.6c1-1 2-1.6 3.1-1.6 1.7 0 2.6 1 2.6 3.1v6.3zM129.8 388.5h-6.3c0 1 .3 1.9.9 2.6s1.3 1 2.2 1c.8 0 1.7-.1 2.6-.4l.2 1.1c-.8.4-1.8.5-2.8.5-1.4 0-2.5-.4-3.3-1.3s-1.2-2.1-1.2-3.5c0-1.5.4-2.6 1.1-3.5s1.7-1.3 2.9-1.3c1.1 0 1.9.4 2.6 1.2.7.8 1.1 1.9 1.1 3.2v.4zm-1.5-1.1c0-.7-.2-1.3-.7-1.8-.4-.5-.9-.7-1.5-.7-.7 0-1.3.2-1.8.7s-.7 1.1-.8 1.8h4.8zM140.6 393h-1.4c-.1-.4-.2-.9-.2-1.5-.8 1.1-1.8 1.7-3.2 1.7-.7 0-1.3-.2-1.8-.7s-.8-1.1-.8-1.9c0-.5.1-.8.3-1.2s.4-.6.8-.9c.4-.2.8-.4 1.3-.6.5-.1 1.1-.2 1.8-.3l1.5-.1v-.4c0-1.6-.7-2.4-2.2-2.4-.3 0-.8.1-1.3.2s-1 .3-1.4.5l-.4-1c1.2-.6 2.4-1 3.5-1 2.1 0 3.1 1.1 3.1 3.3v3.9c.2 1.1.2 1.8.4 2.4zm-1.6-2.7v-1.7c-1.2.1-2.1.2-2.5.3-.5.1-.9.3-1.2.5s-.5.6-.5 1.1c0 .4.1.7.4 1s.7.4 1.1.4c.5 0 1-.1 1.5-.4.4-.3.8-.7 1.2-1.2zM151.1 393h-1.4v-1.3c-.3.5-.7.8-1.2 1.1s-1.1.4-1.7.4c-1 0-1.9-.5-2.5-1.4s-.9-2.1-.9-3.6c0-1.3.3-2.5 1-3.3.6-.9 1.5-1.3 2.5-1.3 1.2 0 2.1.5 2.8 1.4v-4.4h1.4V393zm-1.4-2.8v-3.8c-.7-1.1-1.4-1.6-2.4-1.6-.8 0-1.4.3-1.8 1-.4.7-.7 1.5-.7 2.5 0 1.1.2 1.9.6 2.6.4.7 1 1 1.7 1 .3 0 .7-.1 1-.3s.7-.5 1-.8.6-.5.6-.6zM162.2 388.5h-6.3c0 1 .3 1.9.9 2.6s1.3 1 2.2 1c.8 0 1.7-.1 2.6-.4l.2 1.1c-.8.4-1.8.5-2.8.5-1.4 0-2.5-.4-3.3-1.3s-1.2-2.1-1.2-3.5c0-1.5.4-2.6 1.1-3.5.7-.9 1.7-1.3 2.9-1.3 1.1 0 1.9.4 2.6 1.2s1.1 1.9 1.1 3.2v.4zm-1.5-1.1c0-.7-.2-1.3-.7-1.8-.4-.5-.9-.7-1.5-.7-.7 0-1.3.2-1.8.7s-.7 1.1-.8 1.8h4.8zM172.9 384.1l-.6 1.3c-.6-.3-1.1-.4-1.6-.4-.4 0-.8.1-1.2.3-.4.2-.7.6-1.1 1-.3.4-.5.7-.5.7v5.9h-1.4v-9.2h1.4v1.9c.7-1.4 1.7-2.1 2.8-2.1.9.1 1.5.3 2.2.6zM183.5 387.2l-6.6 3.9v-1.3l5.3-3.1-5.3-3.2v-1.3l6.6 3.9v1.1z"/>
  </g>
  <g>
    <path class="st1" d="M154.6 589.1l-6.6-3.9v-1.1l6.6-3.9v1.3l-5.3 3.2 5.3 3.1v1.3zM165.7 591h-1.4v-1.4c-1 1-2 1.6-3.1 1.6-1.7 0-2.6-1-2.6-3.1v-6.3h1.4v5.9c0 .8.1 1.4.4 1.7.2.4.7.6 1.2.6.8 0 1.7-.5 2.7-1.6v-6.6h1.4v9.2zM175.9 591h-3.7v-11.2h-2.4v-1.2h3.8v11.2h2.4v1.2h-.1zM187.3 585.2l-6.6 3.9v-1.3l5.3-3.1-5.3-3.2v-1.3l6.6 3.9v1.1zM205.4 589c.3 0 .6.1.8.3s.3.5.3.8-.1.6-.3.8-.5.3-.8.3-.6-.1-.8-.3-.3-.5-.3-.8.1-.6.3-.8c.2-.2.4-.3.8-.3zM219.8 591h-1.4v-5.9c0-.8-.1-1.4-.4-1.8-.3-.4-.7-.5-1.2-.5-.8 0-1.7.5-2.7 1.6v6.6h-1.4v-9.2h1.4v1.3c1-1 2-1.6 3.1-1.6 1.7 0 2.6 1 2.6 3.1v6.4zM230.8 591h-1.4c-.1-.4-.2-.9-.2-1.5-.8 1.1-1.8 1.7-3.2 1.7-.7 0-1.3-.2-1.8-.7s-.8-1.1-.8-1.9c0-.5.1-.8.3-1.2s.4-.6.8-.9c.4-.2.8-.4 1.3-.6.5-.1 1.1-.2 1.8-.3l1.5-.1v-.4c0-1.6-.7-2.4-2.2-2.4-.3 0-.8.1-1.3.2s-1 .3-1.4.5l-.4-1c1.2-.6 2.4-1 3.5-1 2.1 0 3.1 1.1 3.1 3.3v3.9c.2 1.1.2 1.8.4 2.4zm-1.6-2.7v-1.7c-1.2.1-2.1.2-2.5.3-.5.1-.9.3-1.2.5s-.5.6-.5 1.1c0 .4.1.7.4 1s.7.4 1.1.4c.5 0 1-.1 1.5-.4.4-.3.8-.7 1.2-1.2zM241.8 581.8l-3.5 9.2h-1.2l-3.5-9.2h1.5l2.6 7.3 2.6-7.3h1.5zM259.4 589c.3 0 .6.1.8.3s.3.5.3.8-.1.6-.3.8c-.2.2-.5.3-.8.3s-.6-.1-.8-.3c-.2-.2-.3-.5-.3-.8s.1-.6.3-.8.5-.3.8-.3zM273.8 591h-1.4v-5.9c0-.8-.1-1.4-.4-1.8-.3-.4-.7-.5-1.2-.5-.8 0-1.7.5-2.7 1.6v6.6h-1.4v-9.2h1.4v1.3c1-1 2-1.6 3.1-1.6 1.7 0 2.6 1 2.6 3.1v6.4zM284.8 591h-1.4c-.1-.4-.2-.9-.2-1.5-.8 1.1-1.8 1.7-3.2 1.7-.7 0-1.3-.2-1.8-.7s-.8-1.1-.8-1.9c0-.5.1-.8.3-1.2s.4-.6.8-.9c.4-.2.8-.4 1.3-.6.5-.1 1.1-.2 1.8-.3l1.5-.1v-.4c0-1.6-.7-2.4-2.2-2.4-.3 0-.8.1-1.3.2s-1 .3-1.4.5l-.4-1c1.2-.6 2.4-1 3.5-1 2.1 0 3.1 1.1 3.1 3.3v3.9c.2 1.1.2 1.8.4 2.4zm-1.6-2.7v-1.7c-1.2.1-2.1.2-2.5.3-.5.1-.9.3-1.2.5s-.5.6-.5 1.1c0 .4.1.7.4 1s.7.4 1.1.4c.5 0 1-.1 1.5-.4.4-.3.8-.7 1.2-1.2zM295.8 581.8l-3.5 9.2h-1.2l-3.5-9.2h1.5l2.6 7.3 2.6-7.3h1.5zM300.5 583c.3-.4.7-.8 1.2-1s1.1-.4 1.6-.4c1.1 0 1.9.4 2.5 1.3s.9 2 .9 3.4-.3 2.6-.9 3.5-1.5 1.4-2.5 1.4c-.6 0-1.1-.1-1.6-.4-.5-.3-.9-.7-1.2-1.1v1.3h-1.4v-12.4h1.4v4.4zm0 1.4v3.8c.3.5.6.9 1 1.3s.9.5 1.4.5c.7 0 1.3-.4 1.8-1.1s.7-1.6.7-2.6c0-1.1-.2-1.9-.6-2.6s-1-1-1.7-1c-1.1.1-1.9.6-2.6 1.7zM317.2 591h-1.4c-.1-.4-.2-.9-.2-1.5-.8 1.1-1.8 1.7-3.2 1.7-.7 0-1.3-.2-1.8-.7s-.8-1.1-.8-1.9c0-.5.1-.8.3-1.2s.4-.6.8-.9c.4-.2.8-.4 1.3-.6.5-.1 1.1-.2 1.8-.3l1.5-.1v-.4c0-1.6-.7-2.4-2.2-2.4-.3 0-.8.1-1.3.2s-1 .3-1.4.5l-.4-1c1.2-.6 2.4-1 3.5-1 2.1 0 3.1 1.1 3.1 3.3v3.9c.2 1.1.2 1.8.4 2.4zm-1.6-2.7v-1.7c-1.2.1-2.1.2-2.5.3-.5.1-.9.3-1.2.5s-.5.6-.5 1.1c0 .4.1.7.4 1s.7.4 1.1.4c.5 0 1-.1 1.5-.4.4-.3.8-.7 1.2-1.2zM327.9 582.1l-.6 1.3c-.6-.3-1.1-.4-1.6-.4-.4 0-.8.1-1.2.3-.4.2-.7.6-1.1 1-.3.4-.5.7-.5.7v5.9h-1.4v-9.2h1.4v1.9c.7-1.4 1.7-2.1 2.8-2.1.9.1 1.6.3 2.2.6zM337.5 586.7h-5.2v-1.3h5.2v1.3zM349.4 591H348v-5.9c0-.8-.1-1.4-.4-1.8-.3-.4-.7-.5-1.2-.5-.8 0-1.7.5-2.7 1.6v6.6h-1.4v-9.2h1.4v1.3c1-1 2-1.6 3.1-1.6 1.7 0 2.6 1 2.6 3.1v6.4zM360.4 591H359c-.1-.4-.2-.9-.2-1.5-.8 1.1-1.8 1.7-3.2 1.7-.7 0-1.3-.2-1.8-.7s-.8-1.1-.8-1.9c0-.5.1-.8.3-1.2s.4-.6.8-.9c.4-.2.8-.4 1.3-.6.5-.1 1.1-.2 1.8-.3l1.5-.1v-.4c0-1.6-.7-2.4-2.2-2.4-.3 0-.8.1-1.3.2s-1 .3-1.4.5l-.4-1c1.2-.6 2.4-1 3.5-1 2.1 0 3.1 1.1 3.1 3.3v3.9c.2 1.1.3 1.8.4 2.4zm-1.6-2.7v-1.7c-1.2.1-2.1.2-2.5.3-.5.1-.9.3-1.2.5s-.5.6-.5 1.1c0 .4.1.7.4 1s.7.4 1.1.4c.5 0 1-.1 1.5-.4.4-.3.8-.7 1.2-1.2zM371.4 581.8l-3.5 9.2h-1.2l-3.5-9.2h1.5l2.6 7.3 2.6-7.3h1.5z"/>
  </g>
  <g>
    <path class="st4" d="M209.6 387.2H206v3.6h-1.2v-3.6h-3.6V386h3.6v-3.6h1.2v3.6h3.6v1.2zM226.9 391c.3 0 .6.1.8.3s.3.5.3.8-.1.6-.3.8c-.2.2-.5.3-.8.3s-.6-.1-.8-.3c-.2-.2-.3-.5-.3-.8s.1-.6.3-.8c.3-.2.5-.3.8-.3zM240.4 385.2c-.8-.3-1.5-.4-2.2-.4s-1.3.1-1.8.4c-.4.2-.7.6-.7 1 0 .3.1.5.3.7s.6.4 1.2.5l1.3.4c.6.2 1.1.4 1.5.6s.7.5.9.9c.2.3.3.7.3 1.2 0 .9-.4 1.6-1.1 2.1-.7.5-1.7.8-2.8.8s-2.1-.2-2.8-.5l.3-1.2c.8.4 1.6.5 2.5.5.8 0 1.4-.1 1.9-.4s.7-.7.7-1.1c0-.3-.1-.6-.4-.8-.2-.2-.8-.5-1.7-.8-.7-.2-1.2-.4-1.6-.5-.3-.1-.6-.3-.9-.5s-.5-.5-.7-.8-.2-.6-.2-1c0-.8.3-1.4 1-1.9s1.6-.7 2.8-.7c.7 0 1.6.1 2.5.4l-.3 1.1zM252.1 393h-1.4v-1.4c-1 1-2 1.6-3.1 1.6-1.7 0-2.6-1-2.6-3.1v-6.3h1.4v5.9c0 .8.1 1.4.4 1.7.2.4.7.6 1.2.6.8 0 1.7-.5 2.7-1.6v-6.6h1.4v9.2zM257.3 385c.3-.4.7-.8 1.2-1s1.1-.4 1.6-.4c1.1 0 1.9.4 2.5 1.3s.9 2 .9 3.4-.3 2.6-.9 3.5-1.5 1.4-2.5 1.4c-.6 0-1.1-.1-1.6-.4s-.9-.7-1.2-1.1v1.3h-1.4v-12.4h1.4v4.4zm0 1.4v3.8c.3.5.6.9 1 1.3s.9.5 1.4.5c.7 0 1.3-.4 1.8-1.1s.7-1.6.7-2.6c0-1.1-.2-1.9-.6-2.6s-1-1-1.7-1c-1.1.1-2 .6-2.6 1.7zM273.8 393h-1.4v-5.9c0-.8-.1-1.4-.4-1.8s-.7-.5-1.2-.5c-.8 0-1.7.5-2.7 1.6v6.6h-1.4v-9.2h1.4v1.3c1-1 2-1.6 3.1-1.6 1.7 0 2.6 1 2.6 3.1v6.4zM284.8 393h-1.4c-.1-.4-.2-.9-.2-1.5-.8 1.1-1.8 1.7-3.2 1.7-.7 0-1.3-.2-1.8-.7s-.8-1.1-.8-1.9c0-.5.1-.8.3-1.2s.4-.6.8-.9c.4-.2.8-.4 1.3-.6.5-.1 1.1-.2 1.8-.3l1.5-.1v-.4c0-1.6-.7-2.4-2.2-2.4-.3 0-.8.1-1.3.2s-1 .3-1.4.5l-.4-1c1.2-.6 2.4-1 3.5-1 2.1 0 3.1 1.1 3.1 3.3v3.9c.2 1.1.2 1.8.4 2.4zm-1.6-2.7v-1.7c-1.2.1-2.1.2-2.5.3-.5.1-.9.3-1.2.5s-.5.6-.5 1.1c0 .4.1.7.4 1s.7.4 1.1.4c.5 0 1-.1 1.5-.4.4-.3.8-.7 1.2-1.2zM295.8 383.8l-3.5 9.2h-1.2l-3.5-9.2h1.5l2.6 7.3 2.6-7.3h1.5z"/>
  </g>
  <g>
    <path class="st4" d="M404.6 585.2H401v3.6h-1.2v-3.6h-3.6V584h3.6v-3.6h1.2v3.6h3.6v1.2zM421.9 589c.3 0 .6.1.8.3s.3.5.3.8-.1.6-.3.8c-.2.2-.5.3-.8.3s-.6-.1-.8-.3c-.2-.2-.3-.5-.3-.8s.1-.6.3-.8c.3-.2.5-.3.8-.3zM435.4 583.2c-.8-.3-1.5-.4-2.2-.4s-1.3.1-1.8.4c-.4.2-.7.6-.7 1 0 .3.1.5.3.7.2.2.6.4 1.2.5l1.3.4c.6.2 1.1.4 1.5.6.4.2.7.5.9.9.2.3.3.7.3 1.2 0 .9-.4 1.6-1.1 2.1s-1.7.8-2.8.8c-1.1 0-2.1-.2-2.8-.5l.3-1.2c.8.4 1.6.5 2.5.5.8 0 1.4-.1 1.9-.4.5-.3.7-.7.7-1.1 0-.3-.1-.6-.4-.8-.2-.2-.8-.5-1.7-.8-.7-.2-1.2-.4-1.6-.5-.3-.1-.6-.3-.9-.5s-.5-.5-.7-.8-.2-.6-.2-1c0-.8.3-1.4 1-1.9s1.6-.7 2.8-.7c.7 0 1.6.1 2.5.4l-.3 1.1zM447.1 591h-1.4v-1.4c-1 1-2 1.6-3.1 1.6-1.7 0-2.6-1-2.6-3.1v-6.3h1.4v5.9c0 .8.1 1.4.4 1.7.2.4.7.6 1.2.6.8 0 1.7-.5 2.7-1.6v-6.6h1.4v9.2zM452.3 583c.3-.4.7-.8 1.2-1s1.1-.4 1.6-.4c1.1 0 1.9.4 2.5 1.3s.9 2 .9 3.4-.3 2.6-.9 3.5-1.5 1.4-2.5 1.4c-.6 0-1.1-.1-1.6-.4-.5-.3-.9-.7-1.2-1.1v1.3h-1.4v-12.4h1.4v4.4zm0 1.4v3.8c.3.5.6.9 1 1.3s.9.5 1.4.5c.7 0 1.3-.4 1.8-1.1s.7-1.6.7-2.6c0-1.1-.2-1.9-.6-2.6s-1-1-1.7-1c-1.1.1-2 .6-2.6 1.7zM468.8 591h-1.4v-5.9c0-.8-.1-1.4-.4-1.8-.3-.4-.7-.5-1.2-.5-.8 0-1.7.5-2.7 1.6v6.6h-1.4v-9.2h1.4v1.3c1-1 2-1.6 3.1-1.6 1.7 0 2.6 1 2.6 3.1v6.4zM479.8 591h-1.4c-.1-.4-.2-.9-.2-1.5-.8 1.1-1.8 1.7-3.2 1.7-.7 0-1.3-.2-1.8-.7s-.8-1.1-.8-1.9c0-.5.1-.8.3-1.2s.4-.6.8-.9c.4-.2.8-.4 1.3-.6.5-.1 1.1-.2 1.8-.3l1.5-.1v-.4c0-1.6-.7-2.4-2.2-2.4-.3 0-.8.1-1.3.2s-1 .3-1.4.5l-.4-1c1.2-.6 2.4-1 3.5-1 2.1 0 3.1 1.1 3.1 3.3v3.9c.2 1.1.2 1.8.4 2.4zm-1.6-2.7v-1.7c-1.2.1-2.1.2-2.5.3-.5.1-.9.3-1.2.5s-.5.6-.5 1.1c0 .4.1.7.4 1s.7.4 1.1.4c.5 0 1-.1 1.5-.4.4-.3.8-.7 1.2-1.2zM490.8 581.8l-3.5 9.2h-1.2l-3.5-9.2h1.5l2.6 7.3 2.6-7.3h1.5zM500.1 586.7h-5.2v-1.3h5.2v1.3zM512.7 591h-1.4v-6c0-1.5-.3-2.2-.8-2.2-.3 0-.6.2-.9.8-.3.5-.5.8-.5.8v6.6h-1.4v-6c0-1.5-.3-2.2-.8-2.2-.3 0-.6.2-.9.8-.3.5-.5.8-.5.8v6.6h-1.4v-9.2h1.3v1.4c.3-.5.6-.9.9-1.2.4-.3.7-.4 1.1-.4s.7.1 1 .4c.3.3.5.7.6 1.2.3-.5.6-.9.9-1.2.4-.3.7-.4 1.1-.4 1.1 0 1.7 1 1.7 3v6.4zM523 586.5h-6.3c0 1 .3 1.9.9 2.6s1.3 1 2.2 1c.8 0 1.7-.1 2.6-.4l.2 1.1c-.8.4-1.8.5-2.8.5-1.4 0-2.5-.4-3.3-1.3s-1.2-2.1-1.2-3.5c0-1.5.4-2.6 1.1-3.5.7-.9 1.7-1.3 2.9-1.3 1.1 0 1.9.4 2.6 1.2s1.1 1.9 1.1 3.2v.4zm-1.5-1.1c0-.7-.2-1.3-.7-1.8-.4-.5-.9-.7-1.5-.7-.7 0-1.3.2-1.8.7s-.7 1.1-.8 1.8h4.8zM533.6 591h-1.4v-5.9c0-.8-.1-1.4-.4-1.8-.3-.4-.7-.5-1.2-.5-.8 0-1.7.5-2.7 1.6v6.6h-1.4v-9.2h1.4v1.3c1-1 2-1.6 3.1-1.6 1.7 0 2.6 1 2.6 3.1v6.4zM544.4 591H543v-1.4c-1 1-2 1.6-3.1 1.6-1.7 0-2.6-1-2.6-3.1v-6.3h1.4v5.9c0 .8.1 1.4.4 1.7.2.4.7.6 1.2.6.8 0 1.7-.5 2.7-1.6v-6.6h1.4v9.2z"/>
  </g>
  <g>
    <path transform="matrix(1 -.00655 .00655 1 -.382 6.834)" class="st4" d="M1029 47.7h28v28h-28z"/>
    <path class="st1" d="M1073.5 55.8l-1.5 4.5h-1.9l4.8-14.2h2.2l4.8 14.2h-2l-1.5-4.5h-4.9zm4.6-1.5l-1.4-4.1c-.3-.9-.5-1.8-.7-2.6-.2.8-.4 1.7-.7 2.6l-1.4 4.1h4.2zM1092.5 45.3v12.3c0 .9 0 1.9.1 2.6h-1.7l-.1-1.8c-.6 1.1-1.8 2-3.5 2-2.5 0-4.3-2.1-4.3-5.2 0-3.4 2.1-5.5 4.6-5.5 1.6 0 2.6.7 3.1 1.6v-6.1h1.8zm-1.9 8.9c0-.2 0-.5-.1-.8-.3-1.2-1.3-2.1-2.7-2.1-1.9 0-3 1.7-3 3.9 0 2.1 1 3.8 3 3.8 1.2 0 2.4-.8 2.7-2.2.1-.3.1-.5.1-.8v-1.8zM1104.3 45.3v12.3c0 .9 0 1.9.1 2.6h-1.7l-.1-1.8c-.6 1.1-1.8 2-3.5 2-2.5 0-4.3-2.1-4.3-5.2 0-3.4 2.1-5.5 4.6-5.5 1.6 0 2.6.7 3.1 1.6v-6.1h1.8zm-1.8 8.9c0-.2 0-.5-.1-.8-.3-1.2-1.3-2.1-2.7-2.1-1.9 0-3 1.7-3 3.9 0 2.1 1 3.8 3 3.8 1.2 0 2.4-.8 2.7-2.2.1-.3.1-.5.1-.8v-1.8zM1111.6 58.3c.5.4 1.5.7 2.4.7 1.3 0 2-.7 2-1.5 0-.9-.5-1.4-1.9-1.9-1.8-.7-2.7-1.7-2.7-2.9 0-1.6 1.3-3 3.5-3 1 0 1.9.3 2.5.6l-.5 1.3c-.4-.3-1.1-.6-2.1-.6-1.1 0-1.7.6-1.7 1.4 0 .8.6 1.2 1.9 1.7 1.8.7 2.7 1.6 2.7 3.1 0 1.8-1.4 3-3.8 3-1.1 0-2.1-.3-2.9-.7l.6-1.2zM1121.2 55.5c0 2.5 1.6 3.5 3.5 3.5 1.3 0 2.1-.2 2.8-.5l.3 1.3c-.7.3-1.8.6-3.4.6-3.1 0-5-2.1-5-5.1s1.8-5.5 4.8-5.5c3.3 0 4.2 2.9 4.2 4.8 0 .4 0 .7-.1.9h-7.1zm5.4-1.4c0-1.2-.5-3-2.6-3-1.9 0-2.7 1.7-2.8 3h5.4zM1137.9 59.8c-.5.3-1.6.6-2.9.6-3.1 0-5.1-2.1-5.1-5.2s2.1-5.4 5.5-5.4c1.1 0 2.1.3 2.6.5l-.4 1.4c-.4-.3-1.1-.5-2.1-.5-2.3 0-3.6 1.7-3.6 3.8 0 2.4 1.5 3.8 3.5 3.8 1 0 1.7-.3 2.3-.5l.2 1.5zM1149.2 55c0 3.8-2.6 5.4-5.1 5.4-2.8 0-4.9-2-4.9-5.2 0-3.4 2.2-5.4 5-5.4 3 0 5 2.1 5 5.2zm-8.1.1c0 2.2 1.3 3.9 3.1 3.9s3.1-1.7 3.1-3.9c0-1.7-.9-3.9-3-3.9s-3.2 2-3.2 3.9zM1151.5 52.8c0-1 0-1.9-.1-2.8h1.6l.1 1.7c.5-1 1.7-1.9 3.4-1.9 1.4 0 3.6.8 3.6 4.3v6.1h-1.8v-5.9c0-1.6-.6-3-2.4-3-1.2 0-2.2.9-2.5 1.9-.1.2-.1.5-.1.9v6.1h-1.8v-7.4zM1171.9 45.3v12.3c0 .9 0 1.9.1 2.6h-1.7l-.1-1.8c-.6 1.1-1.8 2-3.5 2-2.5 0-4.3-2.1-4.3-5.2 0-3.4 2.1-5.5 4.6-5.5 1.6 0 2.6.7 3.1 1.6v-6.1h1.8zm-1.8 8.9c0-.2 0-.5-.1-.8-.3-1.2-1.3-2.1-2.7-2.1-1.9 0-3 1.7-3 3.9 0 2.1 1 3.8 3 3.8 1.2 0 2.4-.8 2.7-2.2.1-.3.1-.5.1-.8v-1.8zM1180.6 60.2l-.1-1.3h-.1c-.6.8-1.7 1.5-3.1 1.5-2.1 0-3.1-1.4-3.1-2.9 0-2.5 2.2-3.8 6.1-3.8v-.2c0-.8-.2-2.4-2.3-2.4-.9 0-1.9.3-2.6.8l-.4-1.2c.8-.5 2.1-.9 3.3-.9 3.1 0 3.9 2.1 3.9 4.2v3.8c0 .9 0 1.7.2 2.4h-1.8zm-.3-5.2c-2 0-4.3.3-4.3 2.3 0 1.2.8 1.8 1.7 1.8 1.3 0 2.2-.8 2.5-1.7.1-.2.1-.4.1-.6V55zM1185.1 53.2c0-1.2 0-2.2-.1-3.2h1.6l.1 2h.1c.5-1.4 1.6-2.2 2.8-2.2.2 0 .4 0 .5.1v1.7c-.2 0-.4-.1-.6-.1-1.3 0-2.2 1-2.5 2.4 0 .3-.1.5-.1.9v5.4h-1.8v-7zM1193.2 50l2.2 6c.2.7.5 1.5.7 2.1.2-.6.4-1.4.7-2.1l2-6h2l-2.8 7.2c-1.3 3.5-2.2 5.3-3.5 6.4-.9.8-1.8 1.1-2.3 1.2l-.5-1.6c.5-.1 1.1-.4 1.6-.9.5-.4 1.1-1.1 1.6-2.1.1-.2.1-.3.1-.4s0-.3-.1-.5l-3.8-9.4h2.1zM1071.1 70.8c0-1 0-1.9-.1-2.8h1.6l.1 1.7c.5-1 1.7-1.9 3.4-1.9 1.4 0 3.6.8 3.6 4.3v6.1h-1.8v-5.9c0-1.6-.6-3-2.4-3-1.2 0-2.2.9-2.5 1.9-.1.2-.1.5-.1.9v6.1h-1.8v-7.4zM1088.4 78.2l-.1-1.3h-.1c-.6.8-1.7 1.5-3.1 1.5-2.1 0-3.1-1.4-3.1-2.9 0-2.5 2.2-3.8 6.1-3.8v-.2c0-.8-.2-2.4-2.3-2.4-.9 0-1.9.3-2.6.8l-.4-1.2c.8-.5 2.1-.9 3.3-.9 3.1 0 3.9 2.1 3.9 4.2v3.8c0 .9 0 1.7.2 2.4h-1.8zm-.3-5.2c-2 0-4.3.3-4.3 2.3 0 1.2.8 1.8 1.7 1.8 1.3 0 2.2-.8 2.5-1.7.1-.2.1-.4.1-.6V73zM1093.4 68l2 5.7c.3.9.6 1.8.8 2.6h.1c.2-.8.5-1.7.9-2.6l2-5.7h1.9l-4 10.2h-1.8l-3.9-10.2h2zM1104.9 65.2c0 .6-.4 1.1-1.2 1.1-.7 0-1.1-.5-1.1-1.1 0-.7.5-1.2 1.2-1.2.6 0 1.1.5 1.1 1.2zm-2.1 13V68h1.8v10.2h-1.8zM1116.5 68c0 .7-.1 1.6-.1 2.8v5.9c0 2.3-.5 3.8-1.4 4.6-1 .9-2.4 1.2-3.7 1.2-1.2 0-2.6-.3-3.4-.8l.5-1.4c.7.4 1.7.8 3 .8 1.9 0 3.3-1 3.3-3.5v-1.1c-.6.9-1.7 1.7-3.2 1.7-2.5 0-4.3-2.1-4.3-5 0-3.4 2.2-5.4 4.6-5.4 1.8 0 2.7.9 3.2 1.8l.1-1.5h1.4zm-1.9 4.1c0-.3 0-.6-.1-.8-.3-1.1-1.2-2-2.6-2-1.8 0-3 1.5-3 3.8 0 2 1 3.7 3 3.7 1.1 0 2.2-.7 2.6-1.9.1-.3.1-.7.1-1v-1.8zM1125.1 78.2l-.1-1.3h-.1c-.6.8-1.7 1.5-3.1 1.5-2.1 0-3.1-1.4-3.1-2.9 0-2.5 2.2-3.8 6.1-3.8v-.2c0-.8-.2-2.4-2.3-2.4-.9 0-1.9.3-2.6.8l-.4-1.2c.8-.5 2.1-.9 3.3-.9 3.1 0 3.9 2.1 3.9 4.2v3.8c0 .9 0 1.7.2 2.4h-1.8zm-.3-5.2c-2 0-4.3.3-4.3 2.3 0 1.2.8 1.8 1.7 1.8 1.3 0 2.2-.8 2.5-1.7.1-.2.1-.4.1-.6V73zM1131.7 65.1V68h2.6v1.4h-2.6v5.5c0 1.3.4 2 1.4 2 .5 0 .8-.1 1.1-.1l.1 1.4c-.4.1-.9.3-1.6.3-.9 0-1.6-.3-2-.8-.5-.5-.7-1.4-.7-2.6v-5.5h-1.6V68h1.6v-2.4l1.7-.5zM1138.5 65.2c0 .6-.4 1.1-1.2 1.1-.7 0-1.1-.5-1.1-1.1 0-.7.5-1.2 1.2-1.2s1.1.5 1.1 1.2zm-2 13V68h1.8v10.2h-1.8zM1150.6 73c0 3.8-2.6 5.4-5.1 5.4-2.8 0-4.9-2-4.9-5.2 0-3.4 2.2-5.4 5-5.4 3 0 5 2.1 5 5.2zm-8.1.1c0 2.2 1.3 3.9 3.1 3.9s3.1-1.7 3.1-3.9c0-1.7-.9-3.9-3-3.9s-3.2 2-3.2 3.9zM1152.9 70.8c0-1 0-1.9-.1-2.8h1.6l.1 1.7c.5-1 1.7-1.9 3.4-1.9 1.4 0 3.6.8 3.6 4.3v6.1h-1.8v-5.9c0-1.6-.6-3-2.4-3-1.2 0-2.2.9-2.5 1.9-.1.2-.1.5-.1.9v6.1h-1.8v-7.4z"/>
  </g>
</svg>
