<?xml version="1.0" encoding="UTF-8" standalone="no"?><svg width="100" height="40" viewBox="0 0 150 26" version="1.1" xml:space="preserve"    xmlns="http://www.w3.org/2000/svg" xmlns:xlink="http://www.w3.org/1999/xlink" xmlns:sketch="http://www.bohemiancoding.com/sketch/ns">        <title>Logo</title>    <desc>Created with Sketch.</desc>    <defs></defs>    <g id="Flow" stroke="none" stroke-width="1" fill="none" fill-rule="evenodd" sketch:type="MSPage">        <g id="4-D" sketch:type="MSArtboardGroup" transform="translate(-130.000000, -17.000000)">            <g id="Header" sketch:type="MSLayerGroup">                <g id="Logo" transform="translate(130.000000, 17.000000)" sketch:type="MSShapeGroup">                    <path d="M2.78326271,0.457219512 L6.0654661,5.95336585 L0.312076271,11.4406341 L10.2591102,11.4406341 L11.1940678,9.24141463 L5.70572034,9.24141463 L9.02669492,5.93878049 L7.08686441,2.65580488 L16.1370763,2.65580488 L8.19216102,21.4233659 L10.9144068,21.4233659 L19.7980932,0.457219512 L2.78326271,0.457219512" id="Fill-1" fill="#00C6FF"></path>                    <path d="M123.498941,13.3139024 L125.767373,13.3139024 L125.767373,25.319561 L123.498941,25.319561 L123.498941,13.3139024 Z" id="Fill-2" fill="#232F49"></path>                    <path d="M123.395975,9.25536585 L125.870975,9.25536585 L125.870975,11.6904878 L123.395975,11.6904878 L123.395975,9.25536585 Z" id="Fill-3" fill="#232F49"></path>                    <path d="M119.613559,9.256 L116.793432,21.7347317 L116.691102,21.7347317 L113.768644,13.3151707 L111.739831,13.3151707 L108.404237,21.7347317 L108.301271,21.7347317 L106.066525,9.256 L103.625212,9.256 L106.684322,25.319561 L108.954025,25.319561 L112.564831,16.4256585 L112.667161,16.4256585 L115.797458,25.319561 L118.06589,25.319561 L121.951271,9.256 L119.613559,9.256" id="Fill-4" fill="#232F49"></path>                    <path d="M88.0493644,23.5617073 C85.8489407,23.5617073 84.3362288,21.8361951 84.3362288,19.3338537 C84.3362288,17.0008293 85.6423729,15.0045366 87.7747881,15.0045366 C90.2161017,15.0045366 90.8694915,17.034439 90.9381356,18.2862439 L86.7177966,18.2862439 L85.9277542,20.1125854 L93.2415254,20.1125854 C93.2752119,19.6382439 93.2752119,19.5038049 93.2752119,19.2666341 C93.2752119,15.816878 91.5222458,13.078 87.7398305,13.078 C84.4735169,13.078 81.9641949,15.7147805 81.9641949,19.3338537 C81.9641949,23.0543902 84.3699153,25.5224878 87.8084746,25.5224878 C89.8722458,25.5224878 91.6938559,24.7792683 92.7947034,23.4602439 L91.4192797,22.1405854 C90.5256356,23.0543902 89.3561441,23.5617073 88.0493644,23.5617073" id="Fill-5" fill="#232F49"></path>                    <path d="M79.0754237,13.0773659 C79.0754237,11.5896585 79.7974576,10.7437073 81.1728814,10.7437073 C81.6889831,10.7437073 82.5139831,10.8794146 83.1673729,11.1165854 L83.8887712,9.45892683 C82.9951271,9.01946341 81.9292373,8.85014634 81.1042373,8.85014634 C78.8002119,8.85014634 76.8063559,9.99985366 76.8063559,13.0773659 L76.8063559,13.4496098 L75.2936441,13.4496098 L75.2936441,15.3438049 L76.8063559,15.3438049 L76.8063559,25.319561 L79.0754237,25.319561 L79.0754237,15.3438049 L81.3788136,15.3438049 L82.1701271,13.4496098 L79.0754237,13.4496098 L79.0754237,13.0773659" id="Fill-6" fill="#232F49"></path>                    <path d="M58.6169492,13.0773659 C57.1042373,13.0773659 55.7288136,13.6531707 55.0411017,14.8364878 L54.9387712,14.8364878 L54.9387712,13.3145366 L52.7377119,13.3145366 L52.7377119,25.319561 L55.0067797,25.319561 L55.0067797,18.8278049 C55.0067797,16.4599024 56.2105932,15.0387805 58.1021186,15.0387805 C59.8887712,15.0387805 60.9552966,15.985561 60.9552966,18.1835122 L60.9552966,25.319561 L63.2243644,25.319561 L63.2243644,17.7782927 C63.2243644,14.7350244 61.4370763,13.0773659 58.6169492,13.0773659" id="Fill-7" fill="#232F49"></path>                    <path d="M47.8550847,20.687122 C47.8550847,22.4785854 46.3766949,23.6289268 44.3135593,23.6289268 C43.0760593,23.6289268 42.0101695,23.0543902 42.0101695,21.6332683 C42.0101695,20.3155122 43.1103814,19.4359512 44.795339,19.4359512 C46.3080508,19.4359512 47.3052966,19.7060976 47.8550847,20.1119512 L47.8550847,20.687122 L47.8550847,20.687122 Z M44.6574153,13.0773659 C43.3169492,13.0773659 42.0444915,13.2796585 41.0822034,13.6519024 L41.4603814,15.4795122 C42.5605932,15.140878 43.4542373,15.0051707 44.3485169,15.0051707 C46.2737288,15.0051707 47.8550847,15.8847317 47.8550847,17.8461463 L47.8550847,18.1841463 C47.2366525,17.9482439 46.2737288,17.6432195 44.8639831,17.6432195 C41.7692797,17.6432195 39.7411017,19.1987805 39.7411017,21.7353659 C39.7411017,24.3734146 41.7349576,25.5567317 43.9697034,25.5567317 C45.8269068,25.5567317 47.0987288,24.8135122 47.7527542,23.9333171 L47.8550847,23.9333171 L47.8550847,25.3208293 L50.0561441,25.3208293 L50.0561441,17.8125366 C50.0561441,14.5327317 47.9243644,13.0773659 44.6574153,13.0773659 L44.6574153,13.0773659 Z" id="Fill-8" fill="#232F49"></path>                    <path d="M19.7980932,9.256 L19.7980932,11.4209756 L24.8866525,11.4209756 L24.8866525,25.319561 L27.2942797,25.319561 L27.2942797,11.4209756 L32.382839,11.4209756 L32.382839,9.256 L19.7980932,9.256" id="Fill-9" fill="#232F49"></path>                    <path d="M39.8440678,13.5510732 C39.1220339,13.2466829 38.3313559,13.2130732 37.8838983,13.2130732 C36.6114407,13.2130732 35.3745763,13.7203902 34.7205508,14.6322927 L34.6175847,14.6322927 L34.6175847,13.3145366 L32.417161,13.3145366 L32.417161,25.3201951 L34.6868644,25.3201951 L34.6868644,18.7593171 C34.6868644,16.2227317 35.9243644,15.2080976 37.7466102,15.2080976 C38.365678,15.2080976 38.778178,15.2759512 39.3286017,15.4110244 L39.8440678,13.5510732" id="Fill-10" fill="#232F49"></path>                    <path d="M103.006144,13.5846829 C102.28411,13.2809268 101.493432,13.212439 101.045975,13.212439 C99.7741525,13.212439 98.3987288,13.7197561 97.7466102,14.633561 L97.6417373,14.633561 L97.6417373,13.3139024 L95.4419492,13.3139024 L95.4419492,25.319561 L97.7116525,25.319561 L97.7116525,18.7593171 C97.7116525,16.2227317 99.0864407,15.2087317 100.908686,15.2087317 C101.527754,15.2087317 101.940254,15.2753171 102.490678,15.4110244 L103.006144,13.5846829" id="Fill-11" fill="#232F49"></path>                    <path d="M144.357203,23.5617073 C142.156144,23.5617073 140.644068,21.8361951 140.644068,19.3338537 C140.644068,17.0008293 141.950847,15.0045366 144.081992,15.0045366 C146.523941,15.0045366 147.176695,17.034439 147.245975,18.2862439 L143.025,18.2862439 L142.234322,20.1125854 L149.549364,20.1125854 C149.583051,19.6382439 149.583051,19.5038049 149.583051,19.2666341 C149.583051,15.816878 147.830085,13.078 144.047669,13.078 C140.781356,13.078 138.271398,15.7147805 138.271398,19.3338537 C138.271398,23.0543902 140.677754,25.5224878 144.116314,25.5224878 C146.180085,25.5224878 148.002331,24.7792683 149.102542,23.4602439 L147.726483,22.1405854 C146.832839,23.0543902 145.663983,23.5617073 144.357203,23.5617073" id="Fill-12" fill="#232F49"></path>                    <path d="M70.1713983,18.3883415 C68.4177966,18.1511707 67.3862288,17.8125366 67.3862288,16.6628293 C67.3862288,15.6145854 68.4177966,14.9721951 69.6902542,14.9721951 C70.7211864,14.9721951 72.0279661,15.3786829 72.8523305,15.9874634 L73.953178,14.3634146 C72.9222458,13.5174634 71.2716102,13.0786341 69.7239407,13.0786341 C67.0766949,13.0786341 65.1165254,14.668439 65.1165254,16.7642927 C65.1165254,19.166439 66.6641949,19.9439024 69.2777542,20.3497561 C70.7561441,20.5862927 72.0279661,20.7556098 72.0279661,22.0067805 C72.0279661,23.0550244 70.9957627,23.6301951 69.6216102,23.6301951 C68.2805085,23.6301951 67.0766949,23.2579512 65.9072034,22.3447805 L64.9105932,24.136878 C65.7699153,24.9149756 67.5584746,25.5237561 69.5523305,25.5237561 C72.303178,25.5237561 74.2970339,23.9345854 74.2970339,21.8038537 C74.2970339,19.2336585 72.2345339,18.659122 70.1713983,18.3883415" id="Fill-13" fill="#232F49"></path>                    <path d="M132.960381,18.3921463 C131.20678,18.1549756 130.175212,17.8163415 130.175212,16.6666341 C130.175212,15.6183902 131.20678,14.976 132.479873,14.976 C133.510169,14.976 134.817585,15.3824878 135.641949,15.9912683 L136.742797,14.3665854 C135.711229,13.5212683 134.061229,13.082439 132.513559,13.082439 C129.866314,13.082439 127.90678,14.6716098 127.90678,16.7680976 C127.90678,19.1696098 129.453814,19.9470732 132.066102,20.3529268 C133.545127,20.5900976 134.817585,20.7587805 134.817585,22.0099512 C134.817585,23.0581951 133.786017,23.634 132.410593,23.634 C131.069492,23.634 129.866314,23.2617561 128.696822,22.3479512 L127.700847,24.1413171 C128.559534,24.9187805 130.346822,25.527561 132.341949,25.527561 C135.092161,25.527561 137.086017,23.9377561 137.086017,21.8076585 C137.086017,19.2374634 135.023517,18.6622927 132.960381,18.3921463" id="Fill-14" fill="#232F49"></path>                </g>            </g>        </g>    </g></svg>
